<svg height="32" viewBox="0 0 138 32" width="138" xmlns="http://www.w3.org/2000/svg"><path d="m137.67 25.886h-3.67v-17.216l3.67-3.67zm-21.67-6.546c0-4.715 3.013-7.34 6.624-7.34 2.237 0 3.729.954 4.594 2.387h.06v-1.94h3.64v13.785h-3.64v-1.94h-.06c-.865 1.433-2.357 2.388-4.594 2.388-3.611 0-6.624-2.626-6.624-7.34zm11.278 0c0-2.328-1.521-3.879-3.729-3.879s-3.73 1.551-3.73 3.879c0 2.327 1.522 3.879 3.73 3.879s3.729-1.552 3.729-3.879zm-23.278 5.878 1.492-3.104c1.373.806 2.954 1.433 4.625 1.433 1.133 0 1.7-.299 1.7-.985 0-.537-.387-.806-1.193-1.194l-2.477-1.074c-2.178-.954-3.103-2.327-3.103-4.117 0-2.686 1.88-4.177 5.341-4.177 1.582 0 3.282.358 4.894.954l-1.224 3.074c-1.253-.538-2.625-.955-3.879-.955-1.073 0-1.402.329-1.402.835 0 .538.358.836 1.313 1.253l2.476 1.075c1.94.805 3.044 1.969 3.044 4.028 0 3.043-2.268 4.416-5.699 4.416-1.909 0-4.088-.448-5.908-1.462zm-12 0 1.492-3.104c1.373.806 2.954 1.433 4.625 1.433 1.133 0 1.7-.299 1.7-.985 0-.537-.387-.806-1.193-1.194l-2.477-1.074c-2.178-.954-3.103-2.327-3.103-4.117 0-2.686 1.88-4.177 5.341-4.177 1.582 0 3.282.358 4.894.954l-1.224 3.074c-1.253-.538-2.625-.955-3.879-.955-1.073 0-1.402.329-1.402.835 0 .538.358.836 1.313 1.253l2.476 1.075c1.94.805 3.044 1.969 3.044 4.028 0 3.043-2.268 4.416-5.699 4.416-1.909 0-4.088-.448-5.908-1.462zm-.724-5.878c0 4.326-3.252 7.34-7.638 7.34s-7.638-3.014-7.638-7.34c0-4.327 3.252-7.34 7.638-7.34s7.638 3.013 7.638 7.34zm-11.517 0c0 2.356 1.641 3.879 3.879 3.879s3.849-1.523 3.849-3.879c0-2.357-1.611-3.879-3.849-3.879s-3.879 1.522-3.879 3.879zm-5.089 6.546h-3.67v-17.216l3.67-3.67zm-6.394-6.546c0 4.326-3.252 7.34-7.638 7.34s-7.638-3.014-7.638-7.34c0-4.327 3.252-7.34 7.638-7.34s7.638 3.013 7.638 7.34zm-11.517 0c0 2.356 1.641 3.879 3.879 3.879s3.849-1.523 3.849-3.879c0-2.357-1.611-3.879-3.849-3.879s-3.879 1.522-3.879 3.879zm-7.927 6.546-5.162-6.563v6.563h-3.67v-17.216l3.67-3.67v12.771l4.536-5.669h4.654l-5.639 6.265 6.385 7.519zm-48.832-25.886h32l-16 16 16 16h-32zm13.405783 18.594217-9.73568791 9.7341354h19.46982341zm-9.73568791-14.92412191v19.46982341l19.46982341-19.46982341z" fill="#1d2c38" fill-rule="evenodd"/></svg>