<svg height="72" viewBox="0 0 316 72" width="316" xmlns="http://www.w3.org/2000/svg"><g fill="none"><path d="m55.4587202 0h-8.0027013l-12.7242951 31.68h-.160054l-12.6442681-31.68h-8.0027014l-13.9247003 56h10.7236198l8.5628904-36.16h.160054l11.52389 27.84h7.4425122l11.5238899-27.84h.160054l8.4828635 36.16h10.8036468zm30.659238 57.2c5.761945 0 9.2831336-2.88 11.52389-6.88h.160054v5.68h9.6832688v-36.96h-9.8433228v17.76c0 8.16-3.2811076 11.36-8.1627554 11.36-4.2414317 0-6.9623502-2.48-6.9623502-8.24v-20.88h-10.0834036v22.64c0 10.96 6.16208 15.52 13.6846192 15.52zm38.9020208-57.2h-9.843323v56h9.843323zm28.738589 27.28v-8.24h-7.602566v-14.8h-9.843323v14.8h-6.802296v8.24h6.802296v17.84c0 7.44 4.161405 10.96 11.123755 10.96h4.321459v-9.12h-1.680567c-2.880973 0-3.921324-1.2-3.921324-4.16v-15.52zm15.374079-26.8h-11.203782v10.8h11.203782zm-10.563566 55.52h9.843323v-36.96h-9.843323zm17.614835 16h9.763295v-21.2h.160054c2.320784 3.84 6.322135 6.4 12.324161 6.4 9.683268 0 17.765996-7.04 17.765996-19.68s-8.082728-19.68-17.765996-19.68c-6.002026 0-10.003377 2.56-12.324161 6.4h-.160054v-5.2h-9.763295zm19.766672-24.08c-5.921999 0-10.003377-4.16-10.003377-10.4s4.081378-10.4 10.003377-10.4 10.003377 4.16 10.003377 10.4-4.081378 10.4-10.003377 10.4zm35.540886-47.92h-9.843323v56h9.843323zm24.737239 17.84c-11.603917 0-19.206483 8-19.206483 19.76s7.842647 19.6 19.926726 19.6c7.76262 0 12.724295-3.6 16.005403-6.64l-4.961675-7.12c-2.080702 2.08-5.761945 5.04-11.043728 5.04-5.681918 0-9.843323-3.28-10.403512-8.96h27.60932v-1.92c0-12.64-6.722269-19.76-17.926051-19.76zm-.480162 7.92c4.801621 0 8.162755 2.72 8.482863 7.44h-17.445889c.80027-5.12 4.241432-7.44 8.963026-7.44z" fill="#000975"/><path d="m286.478548 38.884 5.671 7.487-6.791002 9.629h-11.843998zm.720619-19.844 4.899381 7.545-5.62 7.596-11.203406-15.141z" fill="#ddad76"/><path d="m314.239406 19.04-12.964376 17.52 14.72497 19.44h-10.999268l-14.724971-19.44 12.964376-17.52z" fill="#000975"/></g></svg>